<?xml version="1.0" standalone="no"?>
<!DOCTYPE svg PUBLIC "-//W3C//DTD SVG 1.1//EN" "http://www.w3.org/Graphics/SVG/1.1/DTD/svg11.dtd" >
<svg xmlns="http://www.w3.org/2000/svg" xmlns:xlink="http://www.w3.org/1999/xlink" version="1.1">
<metadata></metadata>
<defs>
<font id="penultimatelightregular" horiz-adv-x="1280" >
<font-face units-per-em="2048" ascent="1638" descent="-410" />
<missing-glyph horiz-adv-x="593" />
<glyph unicode="&#xd;" horiz-adv-x="593" />
<glyph unicode=" "  horiz-adv-x="593" />
<glyph unicode="&#x09;" horiz-adv-x="593" />
<glyph unicode="&#xa0;" horiz-adv-x="593" />
<glyph unicode="!" horiz-adv-x="518" d="M102 113q0 74 66 108q37 18 74 19q82 0 125 -66q16 -27 16 -63q0 -76 -68 -111q-35 -18 -73 -18q-84 0 -123 65q-16 27 -17 66zM150 1362q0 47 6 65.5t28.5 43t59.5 24.5q39 0 63 -27q18 -18 22.5 -40.5t4.5 -81.5v-140l-8 -123l-7 -88l-8 -108l-30 -334l-2 -41l-11 -160 h-37l-6 113l-6 86l-43 442l-10 101l-8 112q-8 92 -8 156z" />
<glyph unicode="$" horiz-adv-x="1052" d="M88 299l68 18l6 -16l4 -12l14 -29q57 -102 132 -154.5t157 -52.5q16 2 25 2v623q-143 33 -256 139q-49 49 -82 103q-55 90 -56 196q0 111 62.5 202t169.5 128q12 4 34.5 10t53.5 12l74 9v143l88 -2v-141q45 0 92 -15.5t102 -51.5t105 -112l16 -30l-84 -31 q-45 119 -184 166l-47 12l2 -524q127 -35 227 -131q29 -29 48.5 -52.5t37.5 -56.5q35 -57 51.5 -118.5t16.5 -120.5q0 -152 -95.5 -268.5t-251.5 -145.5l-20 -4l-14 -2v-189h-88v185h-39q-25 6 -37 8q-74 14 -135.5 48t-104.5 87q-57 66 -82 133l-4 15zM274 1165 q0 -129 144 -211q12 -6 33.5 -15t42.5 -13v487q-92 -12 -152 -82q-68 -80 -68 -166zM584 68q84 20 137 94t53 170q0 47 -9 83t-33.5 80t-26.5 46q-19 18 -25 26q-43 45 -96 74v-573z" />
<glyph unicode="%" horiz-adv-x="1785" d="M88 1104l6 70q31 197 211 282q72 37 160 37q14 0 31.5 -2t27.5 -2q86 -12 156 -62q133 -90 158 -253q6 -37 6 -74q0 -113 -56.5 -204t-156.5 -138q-78 -39 -164 -39t-166 39q-100 47 -156.5 138t-56.5 208zM217 1104q0 -111 33 -182q43 -96 115 -138q51 -27 100 -26 q49 0 102 28q68 37 108 119t40 199v35q-4 25 -4 37q-25 186 -140 254q-55 31 -102 30q-49 0 -104 -30q-35 -23 -62 -55t-53 -91q-33 -72 -33 -180zM612 0l480 1475h84l-480 -1475h-84zM942 365q0 45 4 67q35 199 213 285q74 35 158 35q14 0 31.5 -2t27.5 -2q88 -12 158 -62 q133 -90 158 -252q6 -37 6 -72q0 -115 -57.5 -207t-157.5 -139q-78 -39 -164 -39t-166 39q-96 47 -153.5 140.5t-57.5 208.5zM1071 365q0 -117 33 -185q43 -98 115 -137q47 -25 94 -25q49 0 106 29q68 35 108 117t40 198v35q-4 25 -4 37q-10 94 -46.5 157.5t-93.5 96.5 q-55 33 -102 33q-43 0 -102 -33q-72 -43 -115 -143q-33 -68 -33 -180z" />
<glyph unicode="&#x26;" horiz-adv-x="1316" d="M84 360q0 164 170 322q29 25 49 41q31 25 80 59l57 39l13 8l-17 29l-14 27l-37 53l-20 33q-82 133 -82 225q0 84 73 174q90 113 240 113q29 0 43 -2q121 -14 190.5 -88t69.5 -187q0 -49 -10 -91t-39 -93q-12 -23 -25.5 -42t-33 -42t-37.5 -43q-33 -35 -58 -55l-10 -9 l-14 -10l358 -485l14 10q63 51 87 106.5t24 151.5l-2 129h61l7 -133q0 -90 -26 -157.5t-89 -133.5l-19 -16l-16 -14l213 -279h-209l-129 166l-24 -16l-35 -27l-31 -21l-49 -28q-20 -12 -52 -26.5t-63 -27.5q-115 -39 -217 -38q-100 0 -179 38.5t-136 112.5 q-39 51 -57.5 110.5t-18.5 116.5zM309 401q0 -76 56 -161q96 -147 245 -148q88 0 181 47q16 8 42.5 25.5t47.5 34.5l26 22l-366 498l-29 -21l-78 -63q-125 -125 -125 -234zM463 1229q0 -86 57 -182l80 -132l23 19q35 27 63 61q49 57 71.5 120t22.5 120q-8 86 -61 145 q-41 43 -94 43q-68 0 -121 -67q-41 -53 -41 -127z" />
<glyph unicode="(" horiz-adv-x="555" d="M94 764q0 176 64 364q57 170 168 359l39 65h176l-54 -90q-92 -170 -139 -334q-53 -186 -53 -387v-231q0 -207 51 -387q45 -156 141 -334l54 -90h-176l-39 63q-129 221 -185 482q-47 223 -47 520z" />
<glyph unicode=")" horiz-adv-x="555" d="M14 -301l54 90q92 172 142 344t50 377v231q0 207 -51 387q-43 154 -141 334l-54 90h176l39 -65q129 -221 185 -481q47 -223 47 -521q0 -176 -60.5 -355.5t-171.5 -367.5l-39 -63h-176z" />
<glyph unicode="*" horiz-adv-x="663" d="M74 1321q-10 16 0 31q10 18 35 18q23 0 49 -20l102 -82l57 -54l-14 72q-18 86 -18 123q0 29 9 45t36 43q23 -25 35 -50.5t12 -60.5t-17 -100l-18 -72l53 52q55 53 89 72.5t69 19.5q20 0 33 -2q-16 -53 -46 -81t-114 -58l-70 -27l74 -25q88 -31 119 -55.5t41 -77.5 q-29 -4 -39 -4q-35 0 -68 18.5t-88 67.5l-53 49l18 -69q20 -76 21 -117q0 -27 -9.5 -45.5t-35.5 -40.5q-53 41 -53 100q0 31 2 45.5t14 57.5l18 69q-18 -27 -45 -51q-80 -70 -190 -70q49 94 154 129q27 10 67 15l-20 8l-52 20l-22 9q-68 41 -86 51q-37 25 -49 47z" />
<glyph unicode="," horiz-adv-x="428" d="M-14 -381l14 55l20 72l31 107q68 233 103.5 311t81.5 78q14 0 40 -11q61 -25 62 -75q-1 -68 -105 -211l-143 -195l-18 -24l-47 -60z" />
<glyph unicode="-" horiz-adv-x="610" d="M74 514v178h463v-178h-463z" />
<glyph unicode="." horiz-adv-x="456" d="M72 113q0 74 65 108q37 18 74 19q82 0 125 -66q16 -27 16 -63q1 -76 -67 -111q-35 -18 -74 -18q-84 0 -123 65q-16 27 -16 66z" />
<glyph unicode="/" horiz-adv-x="737" d="M59 0l527 1475h92l-526 -1475h-93z" />
<glyph unicode="0" horiz-adv-x="1261" d="M57 700q0 39 1 85t16 122q43 223 170 391q74 94 174 144.5t211 50.5q178 0 309 -125q141 -141 197 -358q41 -162 41 -320t-42 -290t-122 -232q-74 -92 -181.5 -140t-224.5 -48q-197 0 -330 124q-102 96 -157 238q-61 156 -62 358zM283 715q0 -90 12 -180 q27 -193 106 -332q39 -66 99.5 -104t126.5 -38q61 0 117.5 35t99.5 99.5t78 171.5q16 55 24 93t8 77q0 340 -59.5 555.5t-159.5 281.5q-51 33 -114 33q-135 0 -213 -141q-66 -117 -95.5 -246t-29.5 -305z" />
<glyph unicode="1" horiz-adv-x="1239" d="M315 1411l398 64v-1475h-209v1370l-180 -33z" />
<glyph unicode="2" horiz-adv-x="1239" d="M147 0l469 641l17 21l29 40l34 48l29 43l33 51q104 174 104 297q0 23 -2 35q-14 115 -74.5 172t-185.5 57q-14 2 -41 2q-217 0 -303 -240l-10 -30h-74l4 18l4 19q39 147 148.5 228t271.5 81q207 0 320.5 -93.5t113.5 -252.5q0 -100 -49 -222q-20 -51 -54 -110.5 t-87 -140.5l-31 -46l-8 -12l-33 -41l-352 -481h618v-84h-891z" />
<glyph unicode="3" horiz-adv-x="1241" d="M207 1415v60h784l-438 -523h211q20 0 37 -2q10 -2 47 -8q68 -14 107.5 -64.5t39.5 -115.5q0 -76 -55 -156l-430 -606h-219l463 641q31 43 45 88q4 12 6 26.5t2 26.5q0 55 -40 87t-114 32h-362l438 514h-522z" />
<glyph unicode="4" horiz-adv-x="1239" d="M-10 492l723 983h213v-902h129v-81h-129v-492h-211v492h-725zM141 573h574v775z" />
<glyph unicode="5" horiz-adv-x="1239" d="M268 0l463 641q49 66 49 104q0 18 -6 48q-14 59 -47 83.5t-96 24.5h-357v574h664v-64h-453v-459h254l37 -2q92 -14 143.5 -61t51.5 -121q0 -66 -41 -139l-12 -23l-431 -606h-219z" />
<glyph unicode="6" horiz-adv-x="1269" d="M104 483q0 111 41 224q20 55 48 104l368 664h211l-358 -668l12 10l14 12q70 53 185 54q76 0 168 -27q164 -45 262 -174q92 -121 92 -264q0 -106 -51.5 -200t-149.5 -155q-145 -94 -352 -94q-231 0 -360.5 137.5t-129.5 376.5zM324 434q0 -66 14 -123t39 -110 q39 -76 106.5 -118t145.5 -42q111 0 192 82q119 115 119 303q0 96 -30 172t-89 133q-82 80 -198 80q-80 0 -147.5 -40t-102.5 -114q-14 -33 -23.5 -57.5t-15.5 -53t-8 -55t-2 -57.5z" />
<glyph unicode="7" horiz-adv-x="1239" d="M92 1411v64h1036l-706 -1475h-209l676 1411h-797z" />
<glyph unicode="8" horiz-adv-x="1239" d="M139 424q0 203 146 326q68 57 125 79l16 7l18 6l-28 10q-90 35 -139.5 106.5t-49.5 167.5q0 51 19 111q35 119 128 183.5t242 64.5q111 0 185 -37q162 -78 188 -264q0 -14 2 -30.5t2 -27.5q0 -197 -184 -272l-29 -12l21 -6l18 -7q59 -23 127 -77q152 -127 152 -324 q0 -35 -6 -72q-25 -184 -148.5 -289.5t-322.5 -105.5q-223 0 -352.5 123t-129.5 340zM354 408q0 -33 2 -51.5t9 -57.5q55 -270 256 -270q115 0 186.5 99t71.5 288q0 94 -26 168t-77 135q-66 80 -164 80q-94 0 -159 -80q-47 -57 -73 -135t-26 -176zM412 1143q0 -49 6 -76 q14 -82 63 -137.5t127 -55.5q80 0 129 58q63 74 64 219q0 137 -70 219q-47 55 -119 55t-120 -55q-37 -43 -58.5 -100.5t-21.5 -126.5z" />
<glyph unicode="9" horiz-adv-x="1241" d="M106 1026q0 23 3 45q0 4 6 47q25 147 141 252q51 43 119.5 73t154.5 42q20 0 45 2t39 2q41 0 106.5 -9.5t139.5 -41t125 -80.5q143 -135 143 -322q0 -76 -18 -147.5t-53 -132.5l-21 -35l-20 -33l-23 -37l-12 -18l-412 -633h-231l455 659q-55 -33 -119 -49t-131 -16 q-195 0 -316 121t-121 311zM334 1061q0 -96 27.5 -172t80.5 -131q72 -78 176 -78q76 0 136.5 40t97.5 118q8 18 18.5 50t14.5 55.5t6 51t2 52.5q-1 192 -107 305q-74 80 -174 80q-72 0 -133 -40t-98 -118q-25 -47 -35 -102.5t-11 -77t-1 -33.5z" />
<glyph unicode=":" horiz-adv-x="518" d="M102 113q0 74 66 108q37 18 74 19q82 0 125 -66q16 -27 16 -63q0 -76 -68 -111q-35 -18 -73 -18q-84 0 -123 65q-16 27 -17 66zM102 956q0 74 66 109q37 18 74 18q82 0 125 -65q16 -27 16 -64q0 -75 -68 -110q-35 -18 -73 -19q-84 0 -123 66q-16 27 -17 65z" />
<glyph unicode=";" horiz-adv-x="475" d="M29 -381l14 55l20 72l31 107q68 233 103.5 311t81.5 78q14 0 40 -11q61 -25 62 -75q-1 -68 -105 -211l-143 -195l-18 -24l-47 -60zM106 954q0 74 66 111q37 18 74 18q86 0 125 -65q18 -31 18 -64q0 -73 -70 -110q-35 -18 -71 -19q-86 0 -125 66q-16 33 -17 63z" />
<glyph unicode="?" horiz-adv-x="862" d="M59 1212l2 13l5 16q29 115 119.5 182.5t226.5 67.5h30q25 -4 35 -4q137 -14 219 -89t103 -202q4 -16 4 -29v-30q0 -92 -56.5 -172t-177.5 -152q-31 -18 -67.5 -36.5t-75.5 -33.5l-2 -20l-2 -8l-4 -31l-25 -154l-6 -36l-8 -52l-4 -36l-4 -44h-31l-14 97l-4 16l-19 64 l-4 24q-18 102 -18 158q0 72 28.5 110.5t110.5 86.5l31 20q92 59 127.5 106.5t35.5 112.5q0 16 -8 66q-18 98 -76.5 153.5t-142.5 55.5q-37 0 -78 -13q-74 -20 -121 -75.5t-55 -131.5h-74zM213 111q0 74 66 110q37 18 75 19q84 0 123 -66q18 -31 19 -63q0 -76 -68 -111 q-37 -18 -74 -18q-86 0 -125 65q-16 33 -16 64z" />
<glyph unicode="A" d="M-45 0l684 1538l686 -1538h-211l-199 438h-694l-194 -438h-72zM250 502h631l-314 712z" />
<glyph unicode="B" horiz-adv-x="1325" d="M147 0v1475h551q137 0 237.5 -36t164.5 -104q98 -104 98 -241q0 -84 -39 -155t-112 -110l-66 -28q-29 -10 -51.5 -15.5t-50.5 -9.5q29 -6 44 -8t54 -16q18 -8 39 -15q6 -2 37 -20q84 -47 128 -125t44 -174q0 -70 -28 -139.5t-83 -126.5q-66 -70 -180.5 -111t-259.5 -41 h-527zM354 66h240q106 0 191 36.5t139 102.5q73 91 73 202q0 158 -133 250q-102 70 -254 70h-256v-661zM354 791h256q199 0 301 131q68 86 68 186q0 153 -135 235q-104 66 -250 66h-240v-618z" />
<glyph unicode="C" horiz-adv-x="1482" d="M90 735q0 362 222.5 558t609.5 196q51 0 101 -10.5t146 -53.5q115 -53 209 -141l-41 -51l-43 31q-111 76 -204 104q-117 37 -224 37q-242 0 -389 -175t-147 -489q0 -319 147.5 -495t396.5 -176q53 0 111.5 8t118.5 26q98 29 192 99l35 28l51 -47q-90 -90 -238.5 -145 t-338.5 -55q-309 0 -512 208.5t-203 542.5z" />
<glyph unicode="D" horiz-adv-x="1456" d="M147 0v1475h566q264 0 446 -201t182 -514q0 -111 -28 -242q-55 -242 -219 -380t-387 -138h-560zM354 66h353q170 0 284 163q127 182 127 506q0 326 -127 510q-112 164 -284 164h-353v-1343z" />
<glyph unicode="E" horiz-adv-x="931" d="M147 0v1475h711v-66h-504v-612h459v-64h-459v-667h504v-66h-711z" />
<glyph unicode="F" horiz-adv-x="872" d="M147 0v1475h711v-66h-504v-612h459v-64h-459v-733h-207z" />
<glyph unicode="G" horiz-adv-x="1540" d="M88 733q0 330 206 538t523 208q84 0 144.5 -8.5t144.5 -34.5q123 -37 227 -111l43 -33l-43 -39q-45 31 -90 51.5t-100 41.5l-64 20q-98 29 -200 29q-250 0 -405 -177.5t-155 -484.5t160 -489q154 -176 398 -176h28h23q16 4 24 4q70 8 123 27.5t90 47.5v486h-409v61h616 v-518l-14 -10l-12 -10l-74 -47q-51 -29 -98.5 -50.5t-88.5 -31.5q-145 -43 -278 -43q-311 0 -515 207.5t-204 541.5z" />
<glyph unicode="H" horiz-adv-x="1310" d="M147 0v1475h207v-664h602v664h207v-1475h-207v748h-602v-748h-207z" />
<glyph unicode="I" horiz-adv-x="501" d="M147 0v1475h207v-1475h-207z" />
<glyph unicode="J" horiz-adv-x="677" d="M-14 0v66h182q82 0 120 62t38 220v1127h204v-1127q0 -170 -69.5 -249t-227.5 -95l-61 -4h-186z" />
<glyph unicode="K" horiz-adv-x="1081" d="M147 0v1475h207v-623l621 623h96l-545 -541l584 -934h-242l-469 793l-45 -39v-754h-207z" />
<glyph unicode="L" horiz-adv-x="880" d="M147 0v1475h207v-1409h541v-66h-748z" />
<glyph unicode="M" horiz-adv-x="1703" d="M147 0v1475h195l526 -1135l508 1135h180v-1475h-206v1260l-537 -1289l-600 1289v-1260h-66z" />
<glyph unicode="N" horiz-adv-x="1339" d="M147 0v1475h107l872 -1088v1088h66v-1504l-981 1252v-1223h-64z" />
<glyph unicode="O" horiz-adv-x="1746" d="M90 725q0 340 211 557t528 217q137 0 279 -45q219 -70 356.5 -266.5t137.5 -454.5q0 -260 -135.5 -454.5t-354.5 -266.5q-147 -47 -293 -47q-256 0 -444.5 145.5t-255.5 395.5q-14 53 -21.5 104.5t-7.5 114.5zM309 723q0 -43 6.5 -94t16.5 -99q53 -238 187 -362.5 t317 -124.5q219 0 366 178q160 193 160 516q0 324 -160 516q-147 179 -366 179q-223 0 -369 -181q-158 -195 -158 -528z" />
<glyph unicode="P" horiz-adv-x="1071" d="M147 0v1475h469q160 0 265.5 -69t144.5 -192q16 -47 16 -108q0 -39 -2 -57.5t-14 -51.5q-39 -123 -144.5 -191.5t-265.5 -68.5h-262v-737h-207zM354 799h226q117 0 193.5 83t76.5 224q0 137 -76.5 220t-193.5 83h-226v-610z" />
<glyph unicode="Q" horiz-adv-x="1746" d="M90 709q0 59 8 123.5t27 125.5q70 246 262.5 393.5t443.5 147.5q135 0 277 -45q221 -70 357.5 -265.5t136.5 -457.5q0 -305 -185.5 -517t-468.5 -241l2 -401h-207l-2 399q-276 0 -463.5 215t-187.5 523zM311 737q0 -281 115 -457t315 -231v361h207v-357q186 61 300 235.5 t114 430.5q0 100 -23 225q-10 47 -26 96.5t-39 94.5q-72 145 -190.5 222t-256.5 77q-94 0 -177 -36t-150 -112q-92 -100 -140.5 -236.5t-48.5 -312.5z" />
<glyph unicode="R" horiz-adv-x="1163" d="M147 0v1475h478q127 0 228 -42t163 -114q43 -49 65.5 -111.5t22.5 -124.5q0 -170 -141 -272q-92 -66 -238 -98l-59 -8l432 -705h-244l-455 784h203q152 0 235 83t83 233q0 133 -98.5 221t-250.5 88h-217v-1409h-207z" />
<glyph unicode="S" horiz-adv-x="1036" d="M74 299l67 18l6 -16l5 -12l14 -29q115 -209 301 -209q129 0 210 77t81 200q0 35 -10 82q-20 92 -73.5 149t-168.5 107q-221 94 -301 165.5t-111 196.5q-6 29 -8 43t-2 45q0 154 119 260.5t303 106.5q125 0 214 -46t146 -139l17 -30l-78 -31q-31 66 -92 115 q-89 67 -188 67h-3q-80 0 -147 -43q-55 -37 -87 -95t-32 -118q0 -100 70 -157q31 -27 70.5 -48.5t109.5 -44.5q197 -66 299 -159q94 -88 131 -228q14 -57 14 -116q0 -178 -125.5 -300t-318.5 -122q-188 0 -305 104l-39 41q-53 68 -78 131l-4 15z" />
<glyph unicode="T" horiz-adv-x="708" d="M-14 1409v66h737v-66h-264v-1409h-205v1409h-268z" />
<glyph unicode="U" horiz-adv-x="1150" d="M147 367v1108h207v-1108q0 -129 82 -213t203 -84q41 0 88 12q90 27 147 96q33 43 49.5 89t16.5 106v1102h64v-1100q0 -170 -115.5 -279.5t-308.5 -109.5q-190 0 -311.5 110.5t-121.5 270.5z" />
<glyph unicode="V" horiz-adv-x="890" d="M-29 1475h211l336 -1061l334 1061h68l-476 -1500z" />
<glyph unicode="W" horiz-adv-x="1533" d="M-29 1475h211l369 -1074l186 568l-155 506h211l337 -1094l365 1094h68l-506 -1500l-289 899l-301 -899z" />
<glyph unicode="X" horiz-adv-x="1253" d="M0 0l541 696l-512 779h211l422 -621l493 621h88l-534 -693l544 -782h-231l-434 637l-498 -637h-90z" />
<glyph unicode="Y" horiz-adv-x="1024" d="M-29 1475h236l377 -658l391 658h78l-441 -734v-741h-206v748z" />
<glyph unicode="Z" horiz-adv-x="1216" d="M45 0l852 1409h-801v66h1061l-833 -1409h833v-66h-1112z" />
<glyph unicode="_" horiz-adv-x="1179" d="M0 0v74h1180v-74h-1180z" />
<glyph unicode="`" horiz-adv-x="546" d="M14 1460h273l135 -291h-160z" />
<glyph unicode="a" horiz-adv-x="860" d="M-14 0l323 995q12 33 20.5 48.5t22.5 31.5q33 29 70 29q66 0 94 -55l23 -54l335 -995h-184l-82 250h-465l-82 -250h-75zM164 315h416l-156 504l-47 68l-49 -70z" />
<glyph unicode="b" horiz-adv-x="1277" d="M133 0v1622h193v-561h262q217 0 364.5 -99.5t202.5 -273.5q27 -78 27 -160q0 -84 -27 -155q-55 -174 -202.5 -273.5t-364.5 -99.5h-455zM326 66h272q131 0 228.5 86t127.5 239q18 84 19 158q0 197 -107.5 321.5t-257.5 124.5h-282v-929z" />
<glyph unicode="c" horiz-adv-x="1083" d="M74 514q0 215 102.5 355.5t286.5 185.5q90 22 165 22h7q121 0 219 -44t162 -124l-31 -39q-84 102 -231 134q-55 10 -95 10q-172 0 -278.5 -134.5t-106.5 -371.5q0 -231 101.5 -353t288.5 -122h57q25 6 37 8q113 18 209 94l18 17l39 -33q-51 -51 -123 -87t-162 -52 q-57 -10 -106 -11q-41 0 -84 6q-221 29 -348 172.5t-127 366.5z" />
<glyph unicode="d" horiz-adv-x="1277" d="M72 530q0 80 24 158q57 174 205 273.5t365 99.5h262v561h190v-1622h-452q-217 0 -364.5 99.5t-205.5 273.5q-24 75 -24 151v6zM281 545q0 -51 2 -78t14 -76q33 -156 129 -240.5t227 -84.5h275v929h-285q-150 0 -256 -126t-106 -324z" />
<glyph unicode="e" horiz-adv-x="854" d="M133 162v737l2 31q23 131 160 131h500v-66h-355l-22 -2q-92 -12 -92 -96v-309h401v-64h-401v-354q0 -51 19.5 -72.5t78.5 -31.5h18h353v-66h-504q-158 0 -158 162z" />
<glyph unicode="f" horiz-adv-x="497" d="M133 0v1438q0 27 17.5 57.5t54.5 63.5q29 25 74 40t116 21l51 2h82v-61l-92 -7q-111 0 -110 -102v-391h217v-66h-217v-995h-193z" />
<glyph unicode="g" horiz-adv-x="1251" d="M74 528q0 39 6 80q33 213 180.5 341t368.5 128q147 0 249.5 -45t155.5 -123l-33 -30q-55 66 -144 103.5t-195 37.5q-162 0 -264.5 -104.5t-123.5 -309.5q-6 -59 -6 -112q0 -205 84 -319t234 -134q47 -6 86 -6q137 0 227 67l14 11l13 12v377h192v-930h-192v469 q-33 -23 -86.5 -40t-120 -24.5t-111.5 -7.5q-211 0 -347 118t-177 327q-6 27 -8 67.5t-2 46.5z" />
<glyph unicode="h" horiz-adv-x="1216" d="M133 0v1622h193v-985h565v424h192v-1061h-192v573h-565v-573h-193z" />
<glyph unicode="i" horiz-adv-x="493" d="M111 1284q0 66 57 94q33 16 63 17q74 0 107 -58q16 -29 16 -55q0 -63 -59 -96q-27 -14 -64 -15q-74 0 -106 58q-14 27 -14 55zM135 0v1061h193v-1061h-193z" />
<glyph unicode="j" horiz-adv-x="479" d="M-139 -362h123q74 0 116.5 62t42.5 200v30v1131h193v-1131q0 -188 -85 -273t-265 -85h-125v66zM125 1282q0 63 57 96q16 8 30.5 12.5t33.5 4.5q53 0 88 -33t35 -80q-1 -63 -58 -94q-27 -16 -65 -17q-74 0 -107 58q-14 23 -14 53z" />
<glyph unicode="k" horiz-adv-x="1026" d="M133 0v1622h193v-965l450 404h84l-366 -332l561 -729h-217l-476 610l-36 -35v-569z" />
<glyph unicode="l" horiz-adv-x="550" d="M133 182v1440h193v-1438q0 -102 106 -116l25 -2h108v-66h-268l-37 4q-127 29 -127 178z" />
<glyph unicode="m" horiz-adv-x="1476" d="M133 0v958q0 121 119 121q14 0 43 -4q74 -16 104 -84l328 -715l346 715l23 35q31 39 73 55q23 8 45 9q53 0 91 -38t38 -94v-958h-192v754v63q0 14 -10.5 24.5t-22.5 10.5q-25 0 -61 -64l-8 -18l-385 -801l-375 785l-25 57q-4 12 -16 23q-16 12 -35 -3q-10 -12 -12 -32.5 t-2 -53.5v-745h-66z" />
<glyph unicode="n" horiz-adv-x="1040" d="M133 0v928q0 57 28.5 103t80.5 46q43 0 80 -37q12 -12 30 -34q10 -14 27 -35l414 -582l38 -35l13 41v666h63v-983q0 -12 -3 -28t-11 -32q-10 -18 -31 -18q-18 0 -37 20l-8 9l-22 32l-519 736l-53 47l-24 -66v-778h-66z" />
<glyph unicode="o" horiz-adv-x="1347" d="M72 528q0 246 162.5 405t414.5 159q250 0 415 -159t165 -394q0 -84 -25 -174q-55 -184 -200.5 -290t-354.5 -106q-205 0 -351 105.5t-202 290.5q-24 77 -24 157v6zM268 528q0 -68 17 -143q8 -39 19 -70.5t32 -76.5q51 -102 136 -156.5t185 -54.5q139 0 238 106 q45 51 73.5 109.5t48 144.5t19.5 172q0 213 -115.5 349t-271.5 136q-160 0 -266 -131q-115 -141 -115 -385z" />
<glyph unicode="p" horiz-adv-x="1277" d="M133 -428v1489h455q217 0 364.5 -99.5t202.5 -273.5q27 -78 27 -160q0 -84 -27 -155q-55 -174 -202.5 -273.5t-364.5 -99.5h-262v-428h-193zM326 66h282q150 0 256.5 124.5t106.5 323.5q0 51 -2 77.5t-15 76.5q-33 154 -130 240.5t-226 86.5h-272v-929z" />
<glyph unicode="q" horiz-adv-x="1277" d="M72 528q0 80 24 160q57 174 205 273.5t365 99.5h452v-1489h-190v428h-262q-217 0 -364.5 99.5t-205.5 273.5q-24 71 -24 149v6zM281 514q0 -199 106.5 -323.5t255.5 -124.5h285v929h-275q-129 0 -226 -86t-130 -241q-6 -31 -11 -75t-5 -79z" />
<glyph unicode="r" horiz-adv-x="1019" d="M133 0v1061h469q125 0 212 -54.5t120 -148.5q14 -47 14 -84q0 -225 -225 -287l-94 -18l346 -469h-225l-379 537h155h39q96 0 157.5 63.5t61.5 167.5q0 98 -70.5 162.5t-183.5 64.5h-204v-995h-193z" />
<glyph unicode="s" horiz-adv-x="899" d="M74 778q0 129 81 206t214 77h389v-70h-346q-143 0 -174 -131q-6 -29 -7 -49q0 -61 46.5 -101t144.5 -63l53 -12q170 -29 252 -96.5t96 -186.5q0 -14 2 -30.5t2 -26.5q0 -141 -89 -218t-257 -77h-381v78h389q80 0 129.5 47t49.5 127q0 23 -6 51l-15 41q-23 49 -67.5 74.5 t-151.5 48.5l-68 14l-36 8l-37 11q-115 37 -164 102.5t-49 175.5z" />
<glyph unicode="t" horiz-adv-x="706" d="M-14 995v66h735v-66h-268v-995h-193v995h-274z" />
<glyph unicode="u" horiz-adv-x="1026" d="M133 379v682h193v-682q0 -125 48 -201t140 -98q33 -8 70 -8q109 0 176 82t67 231v676h66v-674q0 -186 -99.5 -293.5t-269.5 -107.5h-24q-12 0 -45 4q-147 18 -234.5 121.5t-87.5 267.5z" />
<glyph unicode="v" horiz-adv-x="915" d="M-29 1061h217l310 -737l39 -52l34 54l297 735h76l-403 -993q-8 -25 -11 -27q-6 -14 -14 -25q-16 -25 -41 -24q-25 0 -47 24l-22 52z" />
<glyph unicode="w" horiz-adv-x="1423" d="M-29 1061h217l310 -737l39 -45l34 45l109 282l-201 455h217l310 -737l38 -45l35 47l310 735h63l-403 -993q-14 -37 -23.5 -50.5t-21.5 -19.5t-25 -6q-25 0 -41 22l-25 52l-190 442l-182 -442l-25 -52q-14 -23 -41 -22q-25 0 -47 24l-22 52z" />
<glyph unicode="x" horiz-adv-x="925" d="M0 1061h195l309 -447l346 447h74l-389 -502l391 -559h-209l-291 430l-336 -430h-74l371 477z" />
<glyph unicode="y" horiz-adv-x="1038" d="M-29 1061h205l430 -821l398 821h63l-719 -1489h-59l219 463z" />
<glyph unicode="z" horiz-adv-x="876" d="M59 995v66h584h55q39 0 61.5 -22.5t22.5 -57.5q0 -16 -10 -41l-43 -76l-422 -702q-12 -25 -14 -39q-2 -20 13.5 -37.5t41.5 -19.5h35h434v-66h-670q-67 0 -67 50q0 11 6 28l14 39l21 45l426 715q18 31 18 57q0 43 -49 55l-55 6h-402z" />
<glyph unicode="~" horiz-adv-x="665" d="M14 1176l4 38q35 178 172 179q33 0 80 -11l131 -43q43 -14 72 -14q43 0 59 49l5 15h114l-6 -48q-35 -170 -170 -170q-35 0 -82 13l-43 12l-31 10l-63 21q-12 4 -27.5 7t-27.5 3q-53 0 -70 -49l-2 -12h-115z" />
<glyph unicode="&#xa1;" horiz-adv-x="520" d="M102 1368q0 74 66 109q37 18 74 18q39 0 73 -18q68 -37 68 -113q0 -33 -16 -61q-41 -66 -125 -66t-123 66q-16 27 -17 65zM152 131v139l8 123l6 88l8 109l29 334l4 41l10 161h35l8 -112l6 -88l43 -443l8 -98l11 -115q8 -90 8 -151q0 -49 -6.5 -68.5t-26.5 -42.5 q-25 -27 -61 -26q-39 0 -60.5 22.5t-25.5 45t-4 81.5z" />
<glyph unicode="&#xa2;" horiz-adv-x="1083" d="M74 514q0 467 465 555l51 8v160h74v-160q47 0 96 -12q164 -37 256 -156l-31 -30q-41 49 -97.5 82.5t-122 50t-101.5 16.5v-989q90 0 164.5 21.5t138.5 74.5l18 17l39 -33q-96 -100 -270 -137l-90 -11v-188h-74v192l-53 5q-215 35 -339 177t-124 357zM274 467q4 -23 5 -33 q16 -147 58 -220t150 -132q12 -6 40 -17.5t63 -17.5v973q-45 -8 -96.5 -37t-110.5 -88q-41 -41 -66.5 -110.5t-37.5 -180.5q-2 -20 -3.5 -44.5t-1.5 -39.5v-53z" />
<glyph unicode="&#xa3;" d="M45 0l12 63h117l125 568h-106l14 74h110l113 509q25 117 125 191q109 80 272 80q190 0 280.5 -63.5t109.5 -217.5l4 -39l-2 -18v-21h-101l2 33q0 123 -62.5 193.5t-166.5 70.5h-45q-23 -6 -31 -8q-141 -35 -178 -205l-115 -505l330 -3l-16 -75l-330 6l-129 -570h729v-63 h-1061z" />
<glyph unicode="&#xa5;" horiz-adv-x="1038" d="M-29 1475h236l377 -658l391 658h78l-441 -734l-4 -174l371 2v-73l-371 -2v-74l373 2v-74l-371 -2l2 -346h-206l-3 346l-368 -2v74l368 2v74l-366 -2v73l366 2l3 181z" />
<glyph unicode="&#xa7;" horiz-adv-x="948" d="M86 545q0 61 35 170q14 45 40.5 92t65.5 94l33 37l-16 14q-49 43 -75 103.5t-26 126.5q0 152 89.5 236.5t246.5 84.5q55 0 121 -12q117 -23 184 -96l-39 -66q-57 57 -163 78q-49 8 -93 8q-68 0 -112 -35q-68 -55 -68 -123q0 -57 49 -106l17 -14l31 -29l272 -244l18 -16 q86 -92 125 -157.5t39 -137.5q0 -100 -98 -285l-57 -106q92 -88 92 -215q0 -88 -49 -168q-94 -158 -299 -158q-53 0 -119 13.5t-162 74.5l-31 21l47 75q29 -25 52.5 -37t72.5 -28q80 -25 129 -25q43 0 80 15q55 20 85 58t30 79q0 23 -15 51q-20 35 -45 53l-49 47l-264 252 l-90 84q-23 23 -49 66q-35 59 -35 125zM223 668q0 -55 41 -103q18 -23 78 -76l305 -276q35 37 51 86q31 96 31 145q0 47 -22.5 82t-85.5 90l-314 289l-12 -20l-19 -31q-41 -78 -47 -120t-6 -66z" />
<glyph unicode="&#xa8;" horiz-adv-x="591" d="M0 1276q0 55 53 86q27 14 60 14q31 0 57 -14q55 -29 55 -90q0 -14 -6 -31q-2 -6 -8 -16q-32 -54 -98 -54q-35 0 -59.5 14.5t-39 38t-14.5 52.5zM342 1276q0 57 53 86q27 14 60 14q31 0 57 -14q53 -29 53 -88q0 -29 -14 -49q-30 -54 -98 -54q-70 0 -97 54q-14 23 -14 51z " />
<glyph unicode="&#xaa;" horiz-adv-x="870" d="M0 530v166h872v-166h-872zM150 743l210 648q8 29 27 51q23 18 47 18q41 0 60 -35q12 -25 14 -34l219 -648h-119l-53 164h-303l-53 -164h-49zM266 948h269l-101 328l-31 45l-30 -45z" />
<glyph unicode="&#xad;" horiz-adv-x="610" d="M74 514v178h463v-178h-463z" />
<glyph unicode="&#xaf;" horiz-adv-x="618" d="M14 1190v162h590v-162h-590z" />
<glyph unicode="&#xb4;" horiz-adv-x="487" d="M125 1165l133 293h274l-247 -293h-160z" />
<glyph unicode="&#xb7;" horiz-adv-x="518" d="M102 606q0 74 66 109q37 18 76 18q82 0 123 -65q16 -27 16 -64q0 -75 -68 -110q-14 -6 -35.5 -12.5t-37.5 -6.5q-86 0 -123 68q-16 27 -17 63z" />
<glyph unicode="&#xb8;" horiz-adv-x="225" d="M14 -100h197v-156q0 -157 -166 -182l-22 -2v82h14q76 8 82 73l-2 17h-103v168z" />
<glyph unicode="&#xba;" horiz-adv-x="870" d="M0 530v166h872v-166h-872zM68 1108q0 160 104 262.5t270 102.5q164 0 270.5 -102.5t106.5 -256.5q0 -51 -16 -113q-37 -121 -131.5 -189.5t-229.5 -68.5t-228 68t-132 190q-14 49 -14 107zM195 1108q0 -43 8 -83t13 -55.5t22 -51.5q33 -66 89 -102t122 -36q90 0 149 66.5 t82 167.5q12 61 12 114q0 139 -74 227.5t-176 88.5t-172 -86q-76 -94 -75 -250z" />
<glyph unicode="&#xbf;" horiz-adv-x="862" d="M59 336q0 92 56.5 172t177.5 151q66 41 143 70l2 21l2 10l4 28l27 154l4 37l8 51l4 39l5 41h30l15 -96l4 -15l18 -65l4 -23q8 -43 14.5 -89t6.5 -72q0 -68 -30 -107t-112 -88l-30 -20q-90 -59 -126 -106.5t-36 -113.5q0 -29 6 -63q18 -102 76.5 -156.5t142.5 -54.5 q37 0 78 12q74 20 122 76.5t54 130.5h74l-2 -10l-4 -19q-29 -115 -120 -182t-226 -67q-16 0 -36 2t-30 2q-281 35 -322 290q-2 16 -3 34t-1 26zM369 1364q0 74 67 109q35 18 74 18q37 0 72 -18q70 -35 69 -111q0 -33 -18 -64q-41 -65 -125 -65t-123 65q-16 27 -16 66z" />
<glyph unicode="&#xc0;" d="M-45 0l684 1538l686 -1538h-211l-199 438h-694l-194 -438h-72zM250 502h631l-314 712zM301 1870h272l136 -291h-160z" />
<glyph unicode="&#xc1;" d="M-45 0l684 1538l686 -1538h-211l-199 438h-694l-194 -438h-72zM250 502h631l-314 712zM555 1575l133 293h275l-248 -293h-160z" />
<glyph unicode="&#xc2;" d="M-45 0l684 1538l686 -1538h-211l-199 438h-694l-194 -438h-72zM250 502h631l-314 712zM281 1577l208 291h261l208 -291h-210l-127 219l-129 -219h-211z" />
<glyph unicode="&#xc3;" d="M-45 0l684 1538l686 -1538h-211l-199 438h-694l-194 -438h-72zM250 502h631l-314 712zM342 1585l4 39q35 178 172 178q33 0 80 -10l131 -43q43 -14 72 -14q43 0 59 49l4 14h115l-6 -47q-35 -170 -170 -170q-35 0 -82 12l-43 13l-31 10l-63 20q-12 4 -27.5 7.5t-28.5 3.5 q-53 0 -69 -50l-2 -12h-115z" />
<glyph unicode="&#xc4;" d="M-45 0l684 1538l686 -1538h-211l-199 438h-694l-194 -438h-72zM250 502h631l-314 712zM348 1686q0 55 53 86q27 14 60 14q31 0 57 -14q55 -29 55 -91q0 -14 -6 -30q-2 -6 -8 -17q-32 -53 -98 -53q-35 0 -59.5 14.5t-39 38t-14.5 52.5zM690 1686q0 57 53 86q27 14 60 14 q31 0 57 -14q53 -29 53 -89q0 -29 -14 -49q-30 -53 -98 -53q-70 0 -96 53q-14 23 -15 52z" />
<glyph unicode="&#xc5;" d="M-45 0l684 1538l686 -1538h-211l-199 438h-694l-194 -438h-72zM250 502h631l-314 712zM465 1767q0 74 51 123t121 49q68 0 119 -51t51 -121q0 -72 -50 -122t-122 -50q-70 1 -121 52q-49 53 -49 120zM547 1769q0 -37 25.5 -64.5t62.5 -27.5q39 0 64.5 26t25.5 64 q0 37 -27 64t-63 27q-37 0 -62.5 -26t-25.5 -63z" />
<glyph unicode="&#xc6;" horiz-adv-x="1513" d="M-29 0l727 1475h742v-64h-498v-614h498v-64h-496v-670h496v-63h-711v733h-317l-367 -733h-74zM442 797h287v573z" />
<glyph unicode="&#xc7;" horiz-adv-x="1482" d="M90 735q0 362 222.5 558t609.5 196q51 0 101 -10.5t146 -53.5q115 -53 209 -141l-41 -51l-43 31q-111 76 -204 104q-117 37 -224 37q-242 0 -389 -175t-147 -489q0 -319 147.5 -495t396.5 -176q53 0 111.5 8t118.5 26q98 29 192 99l35 28l51 -47q-80 -80 -198.5 -131 t-276.5 -65v-131q0 -158 -166 -183l-22 -2v82h14q76 8 82 74l-2 16h-102v144q-272 31 -446.5 235.5t-174.5 511.5z" />
<glyph unicode="&#xc8;" horiz-adv-x="931" d="M147 0v1475h711v-66h-504v-612h459v-64h-459v-667h504v-66h-711zM199 1870h272l135 -291h-160z" />
<glyph unicode="&#xc9;" horiz-adv-x="931" d="M147 0v1475h711v-66h-504v-612h459v-64h-459v-667h504v-66h-711zM453 1575l133 293h274l-248 -293h-159z" />
<glyph unicode="&#xca;" horiz-adv-x="931" d="M147 0v1475h711v-66h-504v-612h459v-64h-459v-667h504v-66h-711zM158 1577l209 291h260l209 -291h-211l-127 219l-129 -219h-211z" />
<glyph unicode="&#xcb;" horiz-adv-x="931" d="M147 0v1475h711v-66h-504v-612h459v-64h-459v-667h504v-66h-711zM225 1686q0 55 54 86q27 14 59 14q31 0 57 -14q55 -29 56 -91q0 -14 -7 -30q-2 -6 -8 -17q-32 -53 -98 -53q-35 0 -59.5 14.5t-39 38t-14.5 52.5zM567 1686q0 57 54 86q27 14 59 14q31 0 57 -14 q53 -29 54 -89q0 -29 -15 -49q-30 -53 -98 -53q-70 0 -96 53q-14 23 -15 52z" />
<glyph unicode="&#xcc;" horiz-adv-x="501" d="M-88 1870h272l135 -291h-159zM147 0v1475h207v-1475h-207z" />
<glyph unicode="&#xcd;" horiz-adv-x="501" d="M147 0v1475h207v-1475h-207zM186 1575l133 293h275l-248 -293h-160z" />
<glyph unicode="&#xce;" horiz-adv-x="501" d="M-88 1577l209 291h260l209 -291h-211l-127 219l-129 -219h-211zM147 0v1475h207v-1475h-207z" />
<glyph unicode="&#xcf;" horiz-adv-x="501" d="M-41 1686q0 55 53 86q27 14 60 14q31 0 57 -14q55 -29 55 -91q0 -14 -6 -30q-2 -6 -8 -17q-32 -53 -98 -53q-35 0 -59.5 14.5t-39 38t-14.5 52.5zM147 0v1475h207v-1475h-207zM301 1686q0 57 53 86q27 14 60 14q31 0 57 -14q53 -29 53 -89q0 -29 -14 -49q-30 -53 -98 -53 q-70 0 -97 53q-14 23 -14 52z" />
<glyph unicode="&#xd0;" horiz-adv-x="1456" d="M0 633v166h147v676h566q264 0 446 -201t182 -514q0 -111 -28 -242q-55 -242 -219 -380t-387 -138h-560v633h-147zM354 66h353q170 0 284 163q127 182 127 506q0 326 -127 510q-113 164 -284 164h-353v-610h170v-166h-170v-567z" />
<glyph unicode="&#xd1;" horiz-adv-x="1339" d="M147 0v1475h107l872 -1088v1088h66v-1504l-981 1252v-1223h-64zM362 1565l5 39q35 178 172 178q33 0 79 -10l132 -43q43 -14 71 -15q43 0 60 49l4 15h114l-6 -47q-35 -170 -170 -170q-35 0 -82 12l-43 12l-30 10l-64 21q-12 4 -27.5 7t-27.5 3q-53 0 -70 -49l-2 -12h-115 z" />
<glyph unicode="&#xd2;" horiz-adv-x="1746" d="M90 725q0 340 211 557t528 217q137 0 279 -45q219 -70 356.5 -266.5t137.5 -454.5q0 -260 -135.5 -454.5t-354.5 -266.5q-147 -47 -293 -47q-256 0 -444.5 145.5t-255.5 395.5q-14 53 -21.5 104.5t-7.5 114.5zM309 723q0 -43 6.5 -94t16.5 -99q53 -238 187 -362.5 t317 -124.5q219 0 366 178q160 193 160 516q0 324 -160 516q-147 179 -366 179q-223 0 -369 -181q-158 -195 -158 -528zM506 1870h272l135 -291h-159z" />
<glyph unicode="&#xd3;" horiz-adv-x="1746" d="M90 725q0 340 211 557t528 217q137 0 279 -45q219 -70 356.5 -266.5t137.5 -454.5q0 -260 -135.5 -454.5t-354.5 -266.5q-147 -47 -293 -47q-256 0 -444.5 145.5t-255.5 395.5q-14 53 -21.5 104.5t-7.5 114.5zM309 723q0 -43 6.5 -94t16.5 -99q53 -238 187 -362.5 t317 -124.5q219 0 366 178q160 193 160 516q0 324 -160 516q-147 179 -366 179q-223 0 -369 -181q-158 -195 -158 -528zM760 1575l133 293h274l-247 -293h-160z" />
<glyph unicode="&#xd4;" horiz-adv-x="1746" d="M90 725q0 340 211 557t528 217q137 0 279 -45q219 -70 356.5 -266.5t137.5 -454.5q0 -260 -135.5 -454.5t-354.5 -266.5q-147 -47 -293 -47q-256 0 -444.5 145.5t-255.5 395.5q-14 53 -21.5 104.5t-7.5 114.5zM309 723q0 -43 6.5 -94t16.5 -99q53 -238 187 -362.5 t317 -124.5q219 0 366 178q160 193 160 516q0 324 -160 516q-147 179 -366 179q-223 0 -369 -181q-158 -195 -158 -528zM485 1577l209 291h260l209 -291h-211l-127 219l-129 -219h-211z" />
<glyph unicode="&#xd5;" horiz-adv-x="1746" d="M90 725q0 340 211 557t528 217q137 0 279 -45q219 -70 356.5 -266.5t137.5 -454.5q0 -260 -135.5 -454.5t-354.5 -266.5q-147 -47 -293 -47q-256 0 -444.5 145.5t-255.5 395.5q-14 53 -21.5 104.5t-7.5 114.5zM309 723q0 -43 6.5 -94t16.5 -99q53 -238 187 -362.5 t317 -124.5q219 0 366 178q160 193 160 516q0 324 -160 516q-147 179 -366 179q-223 0 -369 -181q-158 -195 -158 -528zM506 1565l4 39q35 178 172 178q33 0 80 -10l131 -43q43 -14 72 -15q43 0 59 49l4 15h115l-6 -47q-35 -170 -170 -170q-35 0 -82 12l-43 12l-31 10 l-63 21q-12 4 -27.5 7t-28.5 3q-53 0 -69 -49l-2 -12h-115z" />
<glyph unicode="&#xd6;" horiz-adv-x="1746" d="M90 725q0 340 211 557t528 217q137 0 279 -45q219 -70 356.5 -266.5t137.5 -454.5q0 -260 -135.5 -454.5t-354.5 -266.5q-147 -47 -293 -47q-256 0 -444.5 145.5t-255.5 395.5q-14 53 -21.5 104.5t-7.5 114.5zM309 723q0 -43 6.5 -94t16.5 -99q53 -238 187 -362.5 t317 -124.5q219 0 366 178q160 193 160 516q0 324 -160 516q-147 179 -366 179q-223 0 -369 -181q-158 -195 -158 -528zM553 1686q0 55 53 86q27 14 60 14q31 0 57 -14q55 -29 55 -91q0 -14 -6 -30q-2 -6 -8 -17q-32 -53 -98 -53q-35 0 -59.5 14.5t-39 38t-14.5 52.5z M895 1686q0 57 53 86q27 14 60 14q31 0 57 -14q53 -29 53 -89q0 -29 -14 -49q-30 -53 -98 -53q-70 0 -97 53q-14 23 -14 52z" />
<glyph unicode="&#xd7;" horiz-adv-x="0" />
<glyph unicode="&#xd8;" horiz-adv-x="1746" d="M90 725q0 340 211 557t528 217q137 0 279 -45l92 -37l41 68h92l-65 -107q156 -100 245 -268t89 -377q0 -260 -135.5 -454.5t-354.5 -266.5q-154 -49 -293 -49q-100 0 -187 22.5t-169 67.5l-45 -73h-92l69 116q-204 148 -276 410q-14 53 -21.5 104.5t-7.5 114.5zM309 723 q0 -43 6.5 -94t16.5 -99q20 -94 56 -171.5t83 -139.5l668 1098q-131 115 -303 115q-223 0 -369 -181q-158 -195 -158 -528zM526 160q129 -117 310 -117q219 0 366 178q160 193 160 516q0 168 -43 298t-123 225z" />
<glyph unicode="&#xd9;" horiz-adv-x="1150" d="M147 367v1108h207v-1108q0 -129 82 -213t203 -84q41 0 88 12q90 27 147 96q33 43 49.5 89t16.5 106v1102h64v-1100q0 -170 -115.5 -279.5t-308.5 -109.5q-190 0 -311.5 110.5t-121.5 270.5zM301 1870h272l136 -291h-160z" />
<glyph unicode="&#xda;" horiz-adv-x="1150" d="M147 367v1108h207v-1108q0 -129 82 -213t203 -84q41 0 88 12q90 27 147 96q33 43 49.5 89t16.5 106v1102h64v-1100q0 -170 -115.5 -279.5t-308.5 -109.5q-190 0 -311.5 110.5t-121.5 270.5zM596 1575l133 293h275l-248 -293h-160z" />
<glyph unicode="&#xdb;" horiz-adv-x="1150" d="M147 367v1108h207v-1108q0 -129 82 -213t203 -84q41 0 88 12q90 27 147 96q33 43 49.5 89t16.5 106v1102h64v-1100q0 -170 -115.5 -279.5t-308.5 -109.5q-190 0 -311.5 110.5t-121.5 270.5zM240 1577l209 291h260l209 -291h-211l-127 219l-129 -219h-211z" />
<glyph unicode="&#xdc;" horiz-adv-x="1150" d="M147 367v1108h207v-1108q0 -129 82 -213t203 -84q41 0 88 12q90 27 147 96q33 43 49.5 89t16.5 106v1102h64v-1100q0 -170 -115.5 -279.5t-308.5 -109.5q-190 0 -311.5 110.5t-121.5 270.5zM328 1686q0 55 53 86q27 14 59 14q31 0 58 -14q55 -29 55 -91q0 -14 -6 -30 q-2 -6 -8 -17q-33 -53 -99 -53q-35 0 -59.5 14.5t-38.5 38t-14 52.5zM670 1686q0 57 53 86q27 14 59 14q31 0 58 -14q53 -29 53 -89q0 -29 -14 -49q-31 -53 -99 -53q-70 0 -96 53q-14 23 -14 52z" />
<glyph unicode="&#xdd;" horiz-adv-x="1024" d="M-29 1475h236l377 -658l391 658h78l-441 -734v-741h-206v748zM555 1575l133 293h275l-248 -293h-160z" />
<glyph unicode="&#xdf;" horiz-adv-x="1191" d="M133 0v1153l2 55q0 180 98.5 289t270.5 137q68 10 114 11q115 0 202 -39t141 -111q43 -55 65.5 -117.5t22.5 -122.5q0 -195 -199 -311l-39 -20l45 -17q248 -113 248 -471q0 -197 -150.5 -316.5t-400.5 -119.5h-76v68q166 0 278.5 108.5t112.5 292.5q0 199 -87 308.5 t-222 109.5q-27 0 -41 -2v69q31 -8 68 -8q113 0 186.5 88t73.5 240q0 135 -115 237q-76 70 -160 70q-68 0 -122 -44t-86.5 -126t-32.5 -160v-1251h-197z" />
<glyph unicode="&#xe0;" horiz-adv-x="860" d="M-14 0l323 995q12 33 20.5 48.5t22.5 31.5q33 29 70 29q66 0 94 -55l23 -54l335 -995h-184l-82 250h-465l-82 -250h-75zM164 315h416l-156 504l-47 68l-49 -70zM172 1460h272l136 -291h-160z" />
<glyph unicode="&#xe1;" horiz-adv-x="860" d="M-14 0l323 995q12 33 20.5 48.5t22.5 31.5q33 29 70 29q66 0 94 -55l23 -54l335 -995h-184l-82 250h-465l-82 -250h-75zM164 315h416l-156 504l-47 68l-49 -70zM350 1165l133 293h275l-248 -293h-160z" />
<glyph unicode="&#xe2;" horiz-adv-x="860" d="M-14 0l323 995q12 33 20.5 48.5t22.5 31.5q33 29 70 29q66 0 94 -55l23 -54l335 -995h-184l-82 250h-465l-82 -250h-75zM76 1167l209 291h260l209 -291h-211l-127 219l-129 -219h-211zM164 315h416l-156 504l-47 68l-49 -70z" />
<glyph unicode="&#xe3;" horiz-adv-x="860" d="M-14 0l323 995q12 33 20.5 48.5t22.5 31.5q33 29 70 29q66 0 94 -55l23 -54l335 -995h-184l-82 250h-465l-82 -250h-75zM117 1176l4 38q35 178 172 179q33 0 80 -11l131 -43q43 -14 71 -14q43 0 60 49l4 15h115l-6 -48q-35 -170 -170 -170q-35 0 -82 13l-43 12l-31 10 l-64 21q-12 4 -27.5 7t-27.5 3q-53 0 -70 -49l-2 -12h-114zM164 315h416l-156 504l-47 68l-49 -70z" />
<glyph unicode="&#xe4;" horiz-adv-x="860" d="M-14 0l323 995q12 33 20.5 48.5t22.5 31.5q33 29 70 29q66 0 94 -55l23 -54l335 -995h-184l-82 250h-465l-82 -250h-75zM135 1276q0 55 53 86q27 14 60 14q31 0 57.5 -14t39.5 -38t13 -50q0 -59 -51 -88q-27 -14 -59 -15q-68 0 -98 54q-14 23 -15 51zM164 315h416 l-156 504l-47 68l-49 -70zM477 1276q0 55 53 86q23 14 60 14q70 0 96 -51q14 -23 14 -51q0 -59 -51 -86q-29 -16 -59 -17q-72 0 -98 54q-14 23 -15 51z" />
<glyph unicode="&#xe5;" horiz-adv-x="860" d="M-14 0l323 995q12 33 20.5 48.5t22.5 31.5q33 29 70 29q66 0 94 -55l23 -54l335 -995h-184l-82 250h-465l-82 -250h-75zM164 315h416l-156 504l-47 68l-49 -70zM240 1337q0 74 51 123t121 49q68 0 119 -51t51 -121q0 -72 -50.5 -122t-121.5 -50q-70 1 -121 52 q-49 53 -49 120zM322 1339q0 -37 25.5 -64.5t62.5 -27.5q39 0 64.5 25.5t25.5 64.5q0 37 -27 64t-63 26q-37 0 -62.5 -25.5t-25.5 -62.5z" />
<glyph unicode="&#xe6;" horiz-adv-x="1234" d="M-14 0l460 952l11 21q41 63 100 80q27 8 47 8h586v-66h-389q-51 0 -65.5 -14t-14.5 -61v-332h401v-64h-401v-372q0 -86 100 -86h369v-66h-520q-80 0 -111 35t-31 127v362h-217l-250 -524h-75zM340 588h188v303l-14 27l-25 -23z" />
<glyph unicode="&#xe7;" horiz-adv-x="1083" d="M74 514q0 215 102.5 355.5t286.5 185.5q94 23 172 22q121 0 219 -44t162 -124l-31 -39q-84 102 -231 134q-55 10 -95 10q-172 0 -278.5 -134.5t-106.5 -371.5q0 -231 101.5 -353t288.5 -122h57q25 6 37 8q113 18 209 94l18 17l39 -33q-51 -51 -123 -87t-162 -52l-16 -3 v-141q0 -158 -166 -182l-22 -2v82h14q76 8 82 73l-2 17h-103v156q-209 33 -330.5 176t-121.5 358z" />
<glyph unicode="&#xe8;" horiz-adv-x="854" d="M133 162v737l2 31q23 131 160 131h500v-66h-355l-22 -2q-92 -12 -92 -96v-309h401v-64h-401v-354q0 -51 19.5 -72.5t78.5 -31.5h18h353v-66h-504q-158 0 -158 162zM168 1460h272l135 -291h-159z" />
<glyph unicode="&#xe9;" horiz-adv-x="854" d="M133 162v737l2 31q23 131 160 131h500v-66h-355l-22 -2q-92 -12 -92 -96v-309h401v-64h-401v-354q0 -51 19.5 -72.5t78.5 -31.5h18h353v-66h-504q-158 0 -158 162zM307 1165l133 293h275l-248 -293h-160z" />
<glyph unicode="&#xea;" horiz-adv-x="854" d="M133 162v737l2 31q23 131 160 131h500v-66h-355l-22 -2q-92 -12 -92 -96v-309h401v-64h-401v-354q0 -51 19.5 -72.5t78.5 -31.5h18h353v-66h-504q-158 0 -158 162zM137 1167l209 291h260l209 -291h-211l-127 219l-129 -219h-211z" />
<glyph unicode="&#xeb;" horiz-adv-x="854" d="M133 162v737l2 31q23 131 160 131h500v-66h-355l-22 -2q-92 -12 -92 -96v-309h401v-64h-401v-354q0 -51 19.5 -72.5t78.5 -31.5h18h353v-66h-504q-158 0 -158 162zM205 1276q0 55 53 86q27 14 59 14q31 0 58 -14q55 -29 55 -90q0 -14 -6 -31q-2 -6 -8 -16 q-33 -54 -99 -54q-35 0 -59.5 14.5t-38.5 38t-14 52.5zM547 1276q0 57 53 86q27 14 59 14q31 0 58 -14q53 -29 53 -88q0 -29 -14 -49q-31 -54 -99 -54q-70 0 -96 54q-14 23 -14 51z" />
<glyph unicode="&#xec;" horiz-adv-x="493" d="M-88 1460h272l135 -291h-159zM135 0v1061h193v-1061h-193z" />
<glyph unicode="&#xed;" horiz-adv-x="493" d="M135 0v1061h193v-1061h-193zM166 1165l133 293h274l-247 -293h-160z" />
<glyph unicode="&#xee;" horiz-adv-x="493" d="M-109 1167l209 291h260l209 -291h-211l-127 219l-129 -219h-211zM135 0v1061h193v-1061h-193z" />
<glyph unicode="&#xef;" horiz-adv-x="493" d="M-41 1276q0 55 53 86q27 14 60 14q31 0 57 -14q55 -29 55 -90q0 -14 -6 -31q-2 -6 -8 -16q-32 -54 -98 -54q-35 0 -59.5 14.5t-39 38t-14.5 52.5zM135 0v1061h193v-1061h-193zM301 1276q0 57 53 86q27 14 60 14q31 0 57 -14q53 -29 53 -88q0 -29 -14 -49q-30 -54 -98 -54 q-70 0 -97 54q-14 23 -14 51z" />
<glyph unicode="&#xf0;" horiz-adv-x="1208" d="M119 418q0 143 92 264q45 59 114.5 105.5t155.5 71t162 24.5q59 0 103.5 -13.5t78.5 -40.5l15 -12l12 -10l-215 360l-180 -65l-56 155l150 54l-160 266h191l125 -203l186 62l57 -156l-155 -49l258 -420q14 -23 24 -46.5t25.5 -67.5t27 -108.5t11.5 -125.5 q0 -223 -117 -354q-125 -139 -352 -140q-207 0 -353 94q-96 61 -148 154.5t-52 200.5zM326 406q0 -90 29.5 -158t88.5 -125q82 -82 195 -82q78 0 144.5 42t105.5 118q27 57 40 103t13 110q0 27 -2 53t-8 53q-6 31 -16.5 71t-22.5 66q-33 70 -102.5 112t-147.5 42 q-57 0 -106.5 -18.5t-92.5 -61.5q-53 -53 -85.5 -142t-32.5 -183z" />
<glyph unicode="&#xf1;" horiz-adv-x="1040" d="M133 0v928q0 57 28.5 103t80.5 46q43 0 80 -37q12 -12 30 -34q10 -14 27 -35l414 -582l38 -35l13 41v666h63v-983q0 -12 -3 -28t-11 -32q-10 -18 -31 -18q-18 0 -37 20l-8 9l-22 32l-519 736l-53 47l-24 -66v-778h-66zM178 1176l4 38q35 178 172 179q33 0 80 -11l131 -43 q43 -14 72 -14q43 0 59 49l4 15h115l-6 -48q-35 -170 -170 -170q-35 0 -82 13l-43 12l-31 10l-63 21q-12 4 -27.5 7t-27.5 3q-53 0 -70 -49l-2 -12h-115z" />
<glyph unicode="&#xf2;" horiz-adv-x="1347" d="M72 528q0 246 162.5 405t414.5 159q250 0 415 -159t165 -394q0 -84 -25 -174q-55 -184 -200.5 -290t-354.5 -106q-205 0 -351 105.5t-202 290.5q-25 80 -24 163zM268 528q0 -68 17 -143q8 -39 19 -70.5t32 -76.5q51 -102 136 -156.5t185 -54.5q139 0 238 106 q45 51 73.5 109.5t48 144.5t19.5 172q0 213 -115.5 349t-271.5 136q-160 0 -266 -131q-115 -141 -115 -385zM322 1460h272l135 -291h-160z" />
<glyph unicode="&#xf3;" horiz-adv-x="1347" d="M72 528q0 246 162.5 405t414.5 159q250 0 415 -159t165 -394q0 -84 -25 -174q-55 -184 -200.5 -290t-354.5 -106q-205 0 -351 105.5t-202 290.5q-25 80 -24 163zM268 528q0 -68 17 -143q8 -39 19 -70.5t32 -76.5q51 -102 136 -156.5t185 -54.5q139 0 238 106 q45 51 73.5 109.5t48 144.5t19.5 172q0 213 -115.5 349t-271.5 136q-160 0 -266 -131q-115 -141 -115 -385zM575 1165l134 293h274l-248 -293h-160z" />
<glyph unicode="&#xf4;" horiz-adv-x="1347" d="M72 528q0 246 162.5 405t414.5 159q250 0 415 -159t165 -394q0 -84 -25 -174q-55 -184 -200.5 -290t-354.5 -106q-205 0 -351 105.5t-202 290.5q-25 80 -24 163zM268 528q0 -68 17 -143q8 -39 19 -70.5t32 -76.5q51 -102 136 -156.5t185 -54.5q139 0 238 106 q45 51 73.5 109.5t48 144.5t19.5 172q0 213 -115.5 349t-271.5 136q-160 0 -266 -131q-115 -141 -115 -385zM301 1167l209 291h260l209 -291h-211l-127 219l-129 -219h-211z" />
<glyph unicode="&#xf5;" horiz-adv-x="1347" d="M72 528q0 246 162.5 405t414.5 159q250 0 415 -159t165 -394q0 -84 -25 -174q-55 -184 -200.5 -290t-354.5 -106q-205 0 -351 105.5t-202 290.5q-25 80 -24 163zM268 528q0 -68 17 -143q8 -39 19 -70.5t32 -76.5q51 -102 136 -156.5t185 -54.5q139 0 238 106 q45 51 73.5 109.5t48 144.5t19.5 172q0 213 -115.5 349t-271.5 136q-160 0 -266 -131q-115 -141 -115 -385zM301 1176l4 38q35 178 172 179q33 0 80 -11l131 -43q43 -14 72 -14q43 0 59 49l4 15h115l-6 -48q-35 -170 -170 -170q-35 0 -82 13l-43 12l-31 10l-63 21 q-12 4 -27.5 7t-28.5 3q-53 0 -69 -49l-2 -12h-115z" />
<glyph unicode="&#xf6;" horiz-adv-x="1347" d="M72 528q0 246 162.5 405t414.5 159q250 0 415 -159t165 -394q0 -84 -25 -174q-55 -184 -200.5 -290t-354.5 -106q-205 0 -351 105.5t-202 290.5q-25 80 -24 163zM268 528q0 -68 17 -143q8 -39 19 -70.5t32 -76.5q51 -102 136 -156.5t185 -54.5q139 0 238 106 q45 51 73.5 109.5t48 144.5t19.5 172q0 213 -115.5 349t-271.5 136q-160 0 -266 -131q-115 -141 -115 -385zM358 1276q0 55 54 86q27 14 59 14q31 0 57 -14q53 -29 54 -88q0 -29 -15 -49q-30 -54 -96 -54q-70 0 -98 54q-14 23 -15 51zM700 1274q0 59 52 88q27 14 59 14 q33 0 58.5 -13t40 -36.5t14.5 -52.5q-1 -59 -54 -86q-29 -16 -59 -17q-68 0 -98 54q-12 25 -13 49z" />
<glyph unicode="&#xf8;" horiz-adv-x="1306" d="M78 477q0 285 168 451t459 166q49 0 105 -16.5t114 -43.5l61 -35l100 111l72 -74l-92 -104q131 -137 154 -328q4 -23 4 -42v-40q0 -250 -175 -402.5t-456 -152.5q-82 0 -153.5 29t-143.5 82l-90 -98l-74 71l88 99q-68 74 -104.5 155.5t-36.5 171.5zM270 549q0 -41 3 -81 t20 -106l31 -98l587 654l-26 32q-90 94 -228 94q-51 0 -100 -14q-121 -37 -201 -164q-86 -137 -86 -317zM381 172l33 -43q92 -104 231 -104q92 0 174 50t133 146q74 135 74 301q0 162 -57 303z" />
<glyph unicode="&#xf9;" horiz-adv-x="1026" d="M133 379v682h193v-682q0 -125 48 -201t140 -98q33 -8 70 -8q109 0 176 82t67 231v676h66v-674q0 -186 -99.5 -293.5t-269.5 -107.5h-24q-12 0 -45 4q-147 18 -234.5 121.5t-87.5 267.5zM260 1460h272l136 -291h-160z" />
<glyph unicode="&#xfa;" horiz-adv-x="1026" d="M133 379v682h193v-682q0 -125 48 -201t140 -98q33 -8 70 -8q109 0 176 82t67 231v676h66v-674q0 -186 -99.5 -293.5t-269.5 -107.5h-24q-12 0 -45 4q-147 18 -234.5 121.5t-87.5 267.5zM514 1165l133 293h275l-248 -293h-160z" />
<glyph unicode="&#xfb;" horiz-adv-x="1026" d="M133 379v682h193v-682q0 -125 48 -201t140 -98q33 -8 70 -8q109 0 176 82t67 231v676h66v-674q0 -186 -99.5 -293.5t-269.5 -107.5h-24q-12 0 -45 4q-147 18 -234.5 121.5t-87.5 267.5zM178 1167l209 291h260l209 -291h-211l-127 219l-129 -219h-211z" />
<glyph unicode="&#xfc;" horiz-adv-x="1026" d="M133 379v682h193v-682q0 -125 48 -201t140 -98q33 -8 70 -8q109 0 176 82t67 231v676h66v-674q0 -186 -99.5 -293.5t-269.5 -107.5h-24q-12 0 -45 4q-147 18 -234.5 121.5t-87.5 267.5zM274 1276q0 57 54 86q27 14 59 14q31 0 57 -14q53 -29 54 -88q0 -29 -15 -49 q-30 -54 -98 -54t-96 54q-14 23 -15 51zM614 1274q0 59 56 88q27 14 57 14q35 0 57 -14q55 -29 56 -90q0 -14 -6 -31q-2 -6 -9 -16q-32 -54 -98 -54q-68 0 -98 54q-14 29 -15 49z" />
<glyph unicode="&#xfd;" horiz-adv-x="1038" d="M-29 1061h205l430 -821l398 821h63l-719 -1489h-59l219 463zM535 1165l133 293h274l-248 -293h-159z" />
<glyph unicode="&#xff;" horiz-adv-x="1038" d="M-29 1061h205l430 -821l398 821h63l-719 -1489h-59l219 463zM266 1276q0 55 53 86q27 14 60 14q31 0 57 -14q55 -29 56 -90q0 -14 -7 -31q-2 -6 -8 -16q-32 -54 -98 -54q-35 0 -59.5 14.5t-39 38t-14.5 52.5zM608 1276q0 57 54 86q27 14 59 14q31 0 57 -14q53 -29 53 -88 q0 -29 -14 -49q-30 -54 -98 -54q-70 0 -96 54q-14 23 -15 51z" />
<glyph unicode="&#x152;" horiz-adv-x="2164" d="M86 713q0 25 1 47t9 92q45 313 275 489q190 150 456 150q100 0 180 -14.5t154 -45t110 -58t56 -64.5l16 41q27 68 55.5 90t102.5 30l47 5h543v-68h-393q-68 0 -87.5 -19.5t-19.5 -82.5v-510h494v-58h-494v-563q0 -96 107 -115l26 -2h367v-57h-573q-143 0 -183 102l-6 17 l-2 12l-51 -37q-49 -31 -111.5 -57.5t-136.5 -44.5q-115 -29 -217 -29q-309 0 -517 212t-208 538zM307 733q0 -283 125 -471q117 -176 303 -213q51 -10 92 -10q197 0 338 151q154 164 185 443q6 53 6 108q0 23 -2 50.5t-2 42.5q-23 246 -136.5 397t-281.5 184 q-55 12 -111 12q-205 0 -345 -154.5t-167 -441.5z" />
<glyph unicode="&#x153;" horiz-adv-x="1718" d="M74 537q0 238 162.5 396.5t404.5 158.5q43 0 115.5 -9.5t137 -37t118.5 -76.5q29 92 162 92h499v-66h-389q-47 0 -62.5 -15t-15.5 -60v-332h402v-64h-402v-372q0 -37 27 -61.5t72 -24.5h368v-66h-520q-121 0 -141 90q-55 -57 -141.5 -89t-198.5 -32h-70q-33 6 -47 8 q-219 33 -350 184.5t-131 375.5zM268 537q0 -256 103 -385q96 -123 276 -123q156 0 260.5 112.5t122.5 321.5q2 18 2 53q0 23 -1 45t-1 47q-23 215 -125 325.5t-258 110.5q-172 0 -272 -124q-106 -133 -107 -383z" />
<glyph unicode="&#x178;" horiz-adv-x="1024" d="M-29 1475h236l377 -658l391 658h78l-441 -734v-741h-206v748zM246 1686q0 55 53 86q27 14 59 14q31 0 58 -14q55 -29 55 -91q0 -14 -6 -30q-2 -6 -8 -17q-33 -53 -99 -53q-35 0 -59.5 14.5t-38.5 38t-14 52.5zM588 1686q0 57 53 86q27 14 59 14q31 0 58 -14 q53 -29 53 -89q0 -29 -14 -49q-31 -53 -99 -53q-70 0 -96 53q-14 23 -14 52z" />
<glyph unicode="&#x2c6;" horiz-adv-x="706" d="M14 1167l209 291h260l209 -291h-211l-127 219l-129 -219h-211z" />
<glyph unicode="&#x2dc;" horiz-adv-x="665" d="M14 1176l4 38q35 178 172 179q33 0 80 -11l131 -43q43 -14 72 -14q43 0 59 49l5 15h114l-6 -48q-35 -170 -170 -170q-35 0 -82 13l-43 12l-31 10l-63 21q-12 4 -27.5 7t-27.5 3q-53 0 -70 -49l-2 -12h-115z" />
<glyph unicode="&#x2000;" horiz-adv-x="969" />
<glyph unicode="&#x2001;" horiz-adv-x="1939" />
<glyph unicode="&#x2002;" horiz-adv-x="969" />
<glyph unicode="&#x2003;" horiz-adv-x="1939" />
<glyph unicode="&#x2004;" horiz-adv-x="646" />
<glyph unicode="&#x2005;" horiz-adv-x="484" />
<glyph unicode="&#x2006;" horiz-adv-x="323" />
<glyph unicode="&#x2007;" horiz-adv-x="323" />
<glyph unicode="&#x2008;" horiz-adv-x="242" />
<glyph unicode="&#x2009;" horiz-adv-x="387" />
<glyph unicode="&#x200a;" horiz-adv-x="107" />
<glyph unicode="&#x2010;" horiz-adv-x="610" d="M74 514v178h463v-178h-463z" />
<glyph unicode="&#x2011;" horiz-adv-x="610" d="M74 514v178h463v-178h-463z" />
<glyph unicode="&#x2012;" horiz-adv-x="610" d="M74 514v178h463v-178h-463z" />
<glyph unicode="&#x2013;" horiz-adv-x="870" d="M0 530v166h872v-166h-872z" />
<glyph unicode="&#x2014;" horiz-adv-x="1179" d="M0 530v166h1180v-166h-1180z" />
<glyph unicode="&#x2018;" horiz-adv-x="428" d="M88 967q0 61 107 211l143 194l18 25l47 59l39 47l-14 -55l-20 -72l-31 -106q-70 -242 -101 -307q-37 -80 -83 -80q-16 0 -43 10q-61 23 -62 74z" />
<glyph unicode="&#x2019;" horiz-adv-x="428" d="M-14 893l14 55l20 72l31 106q70 240 103.5 313.5t78.5 73.5q16 0 43 -10q61 -23 62 -76q-1 -65 -105 -208l-143 -195l-18 -25l-47 -59z" />
<glyph unicode="&#x201a;" horiz-adv-x="428" d="M-14 -381l14 55l20 72l31 107q68 233 103.5 311t81.5 78q14 0 40 -11q61 -25 62 -75q-1 -68 -105 -211l-143 -195l-18 -24l-47 -60z" />
<glyph unicode="&#x202f;" horiz-adv-x="387" />
<glyph unicode="&#x2039;" horiz-adv-x="610" d="M74 451v180l342 479l121 -129l-312 -440l312 -441l-121 -129z" />
<glyph unicode="&#x203a;" horiz-adv-x="610" d="M74 100l311 441l-311 440l121 129l342 -479v-180l-342 -480z" />
<glyph unicode="&#x205f;" horiz-adv-x="484" />
<glyph unicode="&#x25fc;" horiz-adv-x="1064" d="M0 0v1065h1065v-1065h-1065z" />
</font>
</defs>
</svg>
