<?xml version="1.0" encoding="utf-8"?>
<!-- Generator: Adobe Illustrator 17.0.0, SVG Export Plug-In . SVG Version: 6.00 Build 0)  -->
<!DOCTYPE svg PUBLIC "-//W3C//DTD SVG 1.1//EN" "http://www.w3.org/Graphics/SVG/1.1/DTD/svg11.dtd">
<svg version="1.1" id="ampoule" xmlns="http://www.w3.org/2000/svg" xmlns:xlink="http://www.w3.org/1999/xlink" x="0px" y="0px"
	 width="154.667px" height="238.69px" viewBox="0 0 154.667 238.69" enable-background="new 0 0 154.667 238.69"
	 xml:space="preserve">
<g>
	<g>
		<g>
			<path fill="#2468FF" d="M149.784,94.683c6.149-21.087,2.837-43.556-9.256-61.909C128.516,14.544,108.44,3.178,86.916,0.829
				c-21.467-2.344-43.139,5.87-58.559,20.727C11.144,38.141,3.95,62.714,7.726,86.076c1.635,10.118,5.74,19.787,11.285,28.358
				c1.267,1.958,3.717,3.446,3.222,5.087c-0.593,1.963-1.186,3.926-1.779,5.889c-2.86,9.466-5.72,18.932-8.58,28.397
				c-0.241,0.797,0.28,1.613,1.048,1.845c25.324,7.652,50.647,15.303,75.971,22.955c0.797,0.241,1.613-0.281,1.845-1.048
				c3.526-11.668,7.051-23.336,10.577-35.004c-0.307,1.016,6.184-1.487,6.941-1.796c2.718-1.11,5.336-2.434,7.903-3.855
				c5.414-2.996,10.343-6.848,14.809-11.111C139.866,117.301,146.125,106.362,149.784,94.683c0.58-1.851-2.317-2.637-2.893-0.798
				c-3.985,12.72-11.138,23.812-21.141,32.627c-4.807,4.236-10.32,7.609-16.084,10.368c-2.849,1.364-5.826,2.432-8.83,3.392
				c-1.091,0.349-2.085,0.396-2.445,1.588c-3.515,11.634-7.031,23.269-10.546,34.903c0.615-0.349,1.23-0.698,1.845-1.048
				c-25.324-7.652-50.647-15.303-75.971-22.955c0.349,0.615,0.698,1.23,1.048,1.845c3.453-11.429,6.907-22.858,10.36-34.287
				c0.812-2.687-0.965-3.737-2.636-6.09c-4.232-5.957-7.345-12.643-9.599-19.573c-4.516-13.881-4.196-28.923,0.141-42.783
				C20.26,28.774,39.93,11.439,63.128,5.503c23.769-6.082,49.423,1.64,66.659,18.818c18.131,18.07,24.196,45.243,17.104,69.565
				C146.348,95.747,149.243,96.537,149.784,94.683z"/>
		</g>
	</g>
	<g>
		<g>
			<path fill="#2468FF" d="M3.236,187.704c25.324,7.652,50.647,15.303,75.971,22.955c0.797,0.241,1.613-0.281,1.845-1.048
				c3.228-10.683,6.456-21.367,9.684-32.05c0.241-0.797-0.28-1.613-1.048-1.845c-25.324-7.652-50.647-15.303-75.971-22.955
				c-0.797-0.241-1.613,0.281-1.845,1.048c-3.228,10.683-6.456,21.367-9.684,32.05c-0.561,1.857,2.335,2.644,2.893,0.798
				c3.228-10.683,6.456-21.367,9.684-32.05c-0.615,0.349-1.23,0.698-1.845,1.048c25.324,7.652,50.647,15.303,75.971,22.955
				c-0.349-0.615-0.698-1.23-1.048-1.845c-3.228,10.683-6.456,21.367-9.684,32.05c0.615-0.349,1.23-0.698,1.845-1.048
				c-25.324-7.652-50.647-15.303-75.971-22.955C2.177,184.25,1.39,187.146,3.236,187.704z"/>
		</g>
	</g>
	<g>
		<g>
			<path fill="#2468FF" d="M78.076,208.331c-16.377,8.776-32.753,17.553-49.13,26.329c0.684,0.179,1.368,0.359,2.052,0.538
				c-8.776-16.377-17.553-32.753-26.329-49.13c-0.565,0.734-1.129,1.469-1.694,2.203c25.153,7.6,50.306,15.2,75.459,22.8
				c1.857,0.561,2.644-2.335,0.798-2.893c-25.153-7.6-50.306-15.2-75.459-22.8c-1.309-0.396-2.295,1.082-1.694,2.204
				c8.776,16.377,17.553,32.753,26.329,49.13c0.396,0.74,1.353,0.913,2.052,0.538c16.377-8.776,32.753-17.553,49.13-26.329
				C81.296,210.008,79.781,207.418,78.076,208.331z"/>
		</g>
	</g>
	<line fill="none" stroke="#2468FF" stroke-miterlimit="10" x1="9.732" y1="165.234" x2="85.799" y2="188.219"/>
	<line fill="none" stroke="#2468FF" stroke-miterlimit="10" x1="7.337" y1="173.158" x2="83.404" y2="196.142"/>
	<g>
		<g>
			<path fill="#2468FF" d="M33.507,59.968c7.751-25.652,34.762-40.093,60.433-33.072c1.869,0.511,2.661-2.383,0.798-2.893
				c-27.264-7.456-55.904,7.965-64.123,35.167C30.053,61.027,32.949,61.815,33.507,59.968L33.507,59.968z"/>
		</g>
	</g>
	<line fill="none" stroke="#2468FF" stroke-miterlimit="10" x1="132.77" y1="90" x2="132.77" y2="90"/>
	<line fill="none" stroke="#2468FF" stroke-miterlimit="10" x1="78.89" y1="73.719" x2="78.89" y2="73.719"/>
	<line fill="none" stroke="#2468FF" stroke-miterlimit="10" x1="94.286" y1="25.624" x2="94.286" y2="25.624"/>
	<line fill="none" stroke="#2468FF" stroke-miterlimit="10" x1="135.746" y1="28.64" x2="135.746" y2="28.64"/>
</g>
</svg>
